<svg width="24" height="18" viewBox="0 0 24 18" fill="none" xmlns="http://www.w3.org/2000/svg">
<path d="M24 6V0.75C24 0.551088 23.921 0.360322 23.7803 0.21967C23.6397 0.0790178 23.4489 0 23.25 0H0.75C0.551088 0 0.360322 0.0790178 0.21967 0.21967C0.0790176 0.360322 0 0.551088 0 0.75L0 6C0.79565 6 1.55871 6.31607 2.12132 6.87868C2.68393 7.44129 3 8.20435 3 9C3 9.79565 2.68393 10.5587 2.12132 11.1213C1.55871 11.6839 0.79565 12 0 12L0 17.25C0 17.4489 0.0790176 17.6397 0.21967 17.7803C0.360322 17.921 0.551088 18 0.75 18H23.25C23.4489 18 23.6397 17.921 23.7803 17.7803C23.921 17.6397 24 17.4489 24 17.25V12C23.2044 12 22.4413 11.6839 21.8787 11.1213C21.3161 10.5587 21 9.79565 21 9C21 8.20435 21.3161 7.44129 21.8787 6.87868C22.4413 6.31607 23.2044 6 24 6ZM17.25 12H6.75V10.5H17.25V12ZM17.25 7.5H6.75V6H17.25V7.5Z" fill="white"/>
</svg>
