<svg width="20" height="20" viewBox="0 0 20 20" fill="none" xmlns="http://www.w3.org/2000/svg">
<path d="M19.907 19.2095C19.883 19.176 17.5 15.8 17.5 13V8C17.5 6.01088 16.7098 4.10322 15.3033 2.6967C13.8968 1.29018 11.9891 0.5 9.99999 0.5C8.01086 0.5 6.10321 1.29018 4.69669 2.6967C3.29016 4.10322 2.49999 6.01088 2.49999 8V13C2.49999 15.8 0.116987 19.176 0.0929873 19.2095C0.0396165 19.2843 0.00787401 19.3723 0.00124339 19.4639C-0.00538722 19.5555 0.0133505 19.6472 0.0553999 19.7289C0.0974494 19.8105 0.161185 19.8791 0.239613 19.9269C0.31804 19.9747 0.408127 20 0.499987 20H19.5C19.5918 20 19.6819 19.9747 19.7604 19.9269C19.8388 19.8791 19.9025 19.8105 19.9446 19.7289C19.9866 19.6472 20.0054 19.5555 19.9987 19.4639C19.9921 19.3723 19.9604 19.2843 19.907 19.2095Z" fill="white"/>
</svg>
